
<svg version="1.0" xmlns="http://www.w3.org/2000/svg"
 width="24pt" height="24pt" viewBox="0 0 24 24"
 preserveAspectRatio="xMidYMid meet">

<g transform="translate(0.000000,24) scale(0.100000,-0.100000)"
fill="#000000" stroke="none">
<path d="M2460 8354 c-507 -61 -910 -212 -1293 -486 -758 -542 -1200 -1451
-1164 -2393 21 -557 180 -1051 482 -1500 153 -227 166 -242 1094 -1195 180
-184 682 -702 1116 -1150 1327 -1369 1378 -1421 1437 -1466 261 -201 642 -207
918 -13 34 24 247 235 492 488 485 501 993 1024 1234 1271 88 91 452 467 809
835 357 369 708 731 780 805 470 484 720 998 811 1671 24 170 23 538 0 707
-50 363 -143 662 -298 962 -204 395 -505 741 -864 992 -346 242 -705 385
-1139 455 -159 26 -604 26 -760 0 -183 -31 -333 -67 -467 -113 -380 -133 -650
-295 -992 -597 l-55 -49 -128 112 c-327 283 -715 491 -1105 591 -211 53 -361
71 -623 74 -137 2 -266 1 -285 -1z m492 -419 c512 -60 950 -269 1353 -645 50
-47 134 -126 188 -177 54 -51 101 -93 106 -93 5 0 94 80 197 177 312 292 460
400 727 528 294 142 564 209 897 222 1067 41 2024 -698 2301 -1777 96 -377 98
-821 4 -1187 -94 -365 -264 -701 -493 -973 -44 -52 -187 -205 -318 -341 -132
-135 -879 -905 -1661 -1711 -1349 -1390 -1426 -1468 -1490 -1500 -62 -30 -75
-33 -163 -33 -84 1 -102 4 -155 29 -76 37 -102 63 -1316 1316 -524 542 -1030
1064 -1125 1160 -485 495 -975 1006 -1045 1089 -117 140 -210 286 -304 476
-172 350 -247 677 -247 1075 0 385 74 715 236 1055 286 597 797 1041 1408
1226 301 91 603 119 900 84z"/>
<path d="M2295 7103 c-408 -53 -741 -291 -921 -657 -70 -145 -104 -274 -111
-431 -5 -110 -4 -124 16 -162 49 -97 163 -133 261 -83 67 34 92 83 102 201 11
134 30 206 83 314 128 258 366 415 670 440 107 9 155 30 191 84 67 102 30 232
-81 282 -38 18 -127 23 -210 12z"/>
</g>
</svg>
