<?xml version="1.0" standalone="no"?>
<!DOCTYPE svg PUBLIC "-//W3C//DTD SVG 20010904//EN"
 "http://www.w3.org/TR/2001/REC-SVG-20010904/DTD/svg10.dtd">
<svg version="1.0" xmlns="http://www.w3.org/2000/svg"
 width="500.000000pt" height="500.000000pt" viewBox="0 0 500.000000 500.000000"
 preserveAspectRatio="xMidYMid meet">

<g transform="translate(0.000000,500.000000) scale(0.100000,-0.100000)"
fill="#000000" stroke="none">
<path d="M2207 4290 c-136 -35 -259 -156 -288 -286 -7 -30 -13 -54 -13 -54 -1
0 -26 10 -56 22 -43 17 -77 22 -150 22 -87 1 -101 -2 -162 -31 -93 -44 -151
-100 -196 -191 l-37 -76 -3 -261 -3 -262 -102 -37 c-209 -77 -333 -179 -412
-340 -65 -133 -80 -197 -79 -351 0 -229 29 -309 321 -905 229 -468 237 -482
315 -566 109 -116 233 -192 385 -236 78 -23 78 -23 843 -23 760 0 766 0 850
22 312 82 562 331 652 648 23 80 23 83 23 780 0 638 -2 708 -18 790 -26 129
-72 265 -127 380 l-48 100 -4 131 c-4 128 -5 133 -41 206 -44 91 -102 147
-195 191 -61 29 -76 32 -162 32 -85 0 -102 -3 -160 -31 l-65 -30 -24 50 c-97
201 -369 275 -564 155 -47 -29 -51 -30 -60 -12 -21 39 -103 107 -163 135 -71
33 -186 46 -257 28z m171 -205 c49 -21 81 -52 103 -100 17 -36 19 -71 19 -368
l0 -329 -47 42 c-83 73 -202 120 -305 120 l-48 0 0 245 c0 262 4 291 53 344
52 56 151 76 225 46z m600 -100 c49 -21 81 -52 103 -100 17 -37 19 -72 19
-435 0 -363 -2 -398 -19 -435 -71 -153 -291 -153 -362 0 -17 37 -19 72 -19
433 0 422 1 435 53 491 52 56 151 76 225 46z m-1193 -204 c49 -22 91 -69 105
-119 6 -21 10 -90 8 -157 l-3 -120 -185 -67 c-102 -36 -191 -67 -197 -67 -21
-1 -18 378 2 427 44 104 166 151 270 103z m1793 4 c49 -21 81 -52 103 -100 17
-37 19 -72 19 -435 0 -363 -2 -398 -19 -435 -71 -153 -291 -153 -362 0 -17 37
-19 72 -19 433 0 422 1 435 53 491 52 56 151 76 225 46z m-1334 -549 c80 -33
145 -126 154 -218 9 -98 -37 -184 -126 -235 -26 -14 -169 -100 -318 -189 -274
-166 -294 -182 -294 -237 0 -32 246 -538 271 -559 34 -29 95 -24 130 11 46 46
40 72 -70 301 -113 235 -114 249 -20 209 140 -59 293 -176 391 -298 110 -137
180 -284 224 -468 31 -130 37 -141 77 -158 57 -24 119 5 133 62 16 64 -54 302
-136 461 -98 190 -262 373 -440 491 l-90 58 157 94 c168 101 212 141 259 237
16 31 29 58 30 59 0 2 22 -18 49 -43 26 -26 78 -60 114 -78 60 -28 75 -31 161
-31 85 0 102 3 160 31 l65 30 24 -50 c35 -71 108 -141 189 -179 61 -29 76 -32
162 -32 86 0 101 3 162 32 37 17 87 50 111 72 45 42 107 144 107 177 0 16 2
17 10 4 6 -9 10 -249 10 -627 0 -701 -1 -710 -76 -861 -97 -198 -291 -345
-504 -382 -45 -8 -286 -10 -785 -8 l-720 3 -65 23 c-86 31 -197 101 -248 157
-63 67 -97 127 -227 395 -65 135 -158 326 -207 425 -103 208 -131 281 -152
395 -48 248 23 448 200 571 23 15 124 57 225 93 101 36 315 112 474 170 307
111 357 122 429 92z"/>
</g>
</svg>
