<?xml version="1.0" standalone="no"?>
<!DOCTYPE svg PUBLIC "-//W3C//DTD SVG 20010904//EN"
 "http://www.w3.org/TR/2001/REC-SVG-20010904/DTD/svg10.dtd">
<svg version="1.0" xmlns="http://www.w3.org/2000/svg"
 width="608.000000pt" height="608.000000pt" viewBox="0 0 608.000000 608.000000"
 preserveAspectRatio="xMidYMid meet">

<g transform="translate(0.000000,608.000000) scale(0.100000,-0.100000)"
fill="#000000" stroke="none">
<path d="M4498 5500 c-284 -48 -518 -268 -590 -554 -30 -119 -22 -299 19 -413
88 -244 286 -422 530 -477 101 -23 251 -21 349 4 306 79 530 347 551 662 32
475 -390 857 -859 778z m223 -386 c106 -30 193 -110 236 -215 12 -31 18 -70
18 -129 0 -76 -4 -93 -33 -152 -36 -75 -95 -133 -170 -169 -71 -34 -198 -38
-274 -9 -76 28 -159 104 -195 178 -25 51 -28 68 -28 157 0 90 3 105 27 152 86
163 250 236 419 187z"/>
<path d="M956 5248 c-89 -24 -151 -135 -126 -227 13 -50 63 -109 107 -127 26
-11 184 -14 840 -14 906 0 843 -5 907 73 34 43 46 122 27 180 -15 45 -78 102
-128 116 -51 15 -1572 13 -1627 -1z"/>
<path d="M3010 4410 c-471 -6 -508 -7 -546 -26 -23 -10 -221 -116 -440 -234
-441 -238 -474 -262 -534 -383 -134 -273 34 -592 336 -637 115 -18 164 -2 590
189 237 106 394 171 413 171 30 0 11 -22 -331 -376 -200 -207 -378 -397 -396
-422 -63 -88 -72 -143 -72 -423 l0 -249 -403 0 c-439 0 -470 -3 -571 -58 -112
-60 -202 -189 -226 -322 -42 -235 124 -475 360 -520 76 -14 1343 -13 1412 1
150 32 271 139 325 286 20 56 23 82 23 214 0 83 4 149 8 147 5 -2 43 -28 85
-58 l77 -55 0 -465 c0 -507 2 -531 58 -634 41 -76 119 -149 208 -193 77 -38
79 -38 198 -38 115 0 124 2 189 32 115 55 213 163 253 283 18 52 19 99 19 780
0 670 -1 728 -17 760 -10 19 -87 97 -173 175 -85 77 -155 142 -155 145 0 3 96
101 213 218 l213 213 110 -48 109 -48 565 -3 c633 -3 657 -1 766 64 164 96
256 288 225 470 -23 139 -115 271 -229 332 -111 60 -135 62 -584 62 l-408 0
-479 319 c-264 176 -496 324 -517 330 -22 6 -68 10 -104 9 -36 -1 -292 -4
-570 -8z m1046 -690 c257 -172 482 -319 501 -326 26 -11 122 -14 472 -14 l440
0 27 -24 c21 -18 28 -32 28 -61 0 -29 -7 -43 -28 -61 l-27 -24 -510 0 -509 0
-162 65 c-173 69 -227 79 -291 51 -47 -20 -732 -712 -752 -758 -8 -21 -15 -54
-15 -75 1 -76 27 -109 238 -302 l202 -183 0 -619 c0 -655 -1 -666 -45 -683
-31 -12 -73 -6 -96 13 l-24 19 -5 539 -5 539 -24 35 c-28 42 -578 445 -644
473 -84 36 -191 -6 -233 -90 -17 -36 -19 -67 -22 -374 -2 -326 -3 -335 -23
-353 -20 -16 -66 -17 -650 -17 -445 0 -635 3 -653 11 -37 17 -51 60 -32 97 8
16 23 32 31 36 9 3 240 6 513 6 461 0 500 2 537 19 50 22 91 69 105 119 6 22
10 171 10 366 l0 329 97 101 c54 56 154 160 223 231 134 139 561 584 672 700
96 101 118 168 83 252 -20 48 -41 71 -87 94 -34 17 -63 19 -361 19 l-324 0
-369 -166 c-453 -204 -453 -204 -482 -193 -31 12 -48 52 -35 82 7 15 126 85
389 227 l379 205 480 5 c264 3 487 4 496 3 9 -1 227 -142 485 -313z"/>
<path d="M420 4221 c-57 -30 -93 -83 -98 -145 -2 -29 1 -70 7 -89 15 -45 78
-102 128 -116 54 -15 800 -15 860 1 134 33 183 199 90 305 -56 64 -51 63 -524
63 -398 0 -431 -1 -463 -19z"/>
<path d="M196 2968 c-89 -24 -151 -135 -126 -227 13 -50 63 -109 107 -127 26
-11 134 -14 526 -14 l493 0 46 29 c53 34 88 97 88 157 -1 82 -61 162 -138 184
-50 13 -943 12 -996 -2z"/>
</g>
</svg>
